<?xml version="1.0" encoding="UTF-8"?>
<!DOCTYPE svg PUBLIC "-//W3C//DTD SVG 1.1//EN" "http://www.w3.org/Graphics/SVG/1.1/DTD/svg11.dtd">
<!-- Creator: CorelDRAW -->
<svg xmlns="http://www.w3.org/2000/svg" xml:space="preserve" width="7.11111in" height="7.11111in" version="1.1" style="shape-rendering:geometricPrecision; text-rendering:geometricPrecision; image-rendering:optimizeQuality; fill-rule:evenodd; clip-rule:evenodd"
viewBox="0 0 7111 7111"
 xmlns:xlink="http://www.w3.org/1999/xlink">
 <defs>
  <style type="text/css">
   <![CDATA[
    .fil0 {fill:#56BE9D}
    .fil3 {fill:#5EAC24}
    .fil1 {fill:#5FD3AE}
    .fil7 {fill:#99A4AC}
    .fil6 {fill:#9FCFCF}
    .fil2 {fill:#C5FFFF}
    .fil5 {fill:#FF4141}
    .fil4 {fill:#FFBE00}
   ]]>
  </style>
 </defs>
 <g id="Layer_x0020_1">
  <metadata id="CorelCorpID_0Corel-Layer"/>
  <g id="_551454640">
   <path class="fil0" d="M2775 5472l-329 827c-18,52 5,110 57,133 12,6 23,6 35,6 35,0 75,-29 98,-64l1845 0c11,40 52,64 92,64 12,0 29,-6 41,-6 52,-23 80,-81 57,-133l-329 -827c-23,-52 -81,-81 -133,-58 -190,0 -1379,-66 -1434,58z"/>
   <path class="fil1" d="M6579 5611l-6047 0c-295,0 -532,-237 -532,-532l0 -3874c0,-294 237,-531 532,-531l6047 0c295,0 532,237 532,531l0 3874c0,295 -243,532 -532,532z"/>
   <path class="fil2" d="M6694 4819l0 -3614c0,-64 -50,-114 -115,-114l-6047 0c-65,0 -115,50 -115,114l0 3614 6277 0z"/>
   <path class="fil1" d="M5319 6438l-3527 0c-58,0 -104,-47 -104,-104 0,-58 46,-105 104,-105l3527 0c58,0 104,47 104,105 0,57 -46,104 -104,104z"/>
   <path class="fil3" d="M1842 4408c-523,0 -1013,-332 -1182,-860 -212,-648 142,-1350 795,-1562 22,-6 49,-6 71,5 22,11 38,33 49,55l343 1056 952 566c44,27 60,87 33,130 -152,262 -397,458 -686,550 -125,38 -250,60 -375,60z"/>
   <path class="fil4" d="M3257 3722c-16,0 -33,-5 -49,-11l-980 -582c-27,-16 -43,-44 -43,-71 -6,-27 5,-60 27,-82l822 -794c38,-38 98,-38 136,0 136,141 234,299 288,479 109,337 71,707 -114,1012 -22,33 -54,49 -87,49z"/>
   <path class="fil5" d="M2059 2982c-5,0 -16,0 -21,-6 -33,-5 -60,-32 -66,-65l-354 -1083c-16,-49 11,-104 60,-120 452,-147 942,-27 1274,316 16,16 27,43 27,65 0,27 -11,49 -27,65l-827 801c-17,16 -44,27 -66,27z"/>
   <path class="fil5" d="M4520 4354c-54,0 -98,-44 -98,-98l-376 0c0,54 -43,98 -98,98 -54,0 -98,-44 -98,-98l0 -898c0,-55 44,-98 98,-98l567 0c54,0 98,43 98,98l0 903c5,49 -39,93 -93,93z"/>
   <path class="fil4" d="M5369 4354c-54,0 -98,-44 -98,-98l-375 0c0,54 -44,98 -98,98 -55,0 -98,-44 -98,-98l0 -1165c0,-55 43,-98 98,-98l566 0c54,0 98,43 98,98l0 1170c0,49 -44,93 -93,93z"/>
   <path class="fil3" d="M6208 4354c-55,0 -98,-44 -98,-98l-371 0c0,54 -43,98 -98,98 -54,0 -98,-44 -98,-98l0 -1628c0,-54 44,-98 98,-98l561 0c55,0 98,44 98,98l0 1628c6,54 -38,98 -92,98z"/>
   <path class="fil6" d="M6202 1697l-2237 0c-55,0 -98,-43 -98,-98 0,-54 43,-98 98,-98l2237 0c55,0 98,44 98,98 0,55 -43,98 -98,98z"/>
   <path class="fil6" d="M6202 2122l-2237 0c-55,0 -98,-44 -98,-98 0,-55 43,-98 98,-98l2237 0c55,0 98,43 98,98 0,54 -43,98 -98,98z"/>
   <path class="fil7" d="M6415 4395l-2663 0c-54,0 -98,-43 -98,-98 0,-54 44,-98 98,-98l2663 0c54,0 98,44 98,98 0,55 -49,98 -98,98z"/>
  </g>
 </g>
</svg>
